<svg width="24" height="24" viewBox="0 0 24 24" fill="none" xmlns="http://www.w3.org/2000/svg">
<g clip-path="url(#clip0_111_1874)">
<path d="M12.0037 7.95708C9.73225 7.95708 7.90011 9.76059 7.90011 11.9965C7.90011 14.2325 9.73225 16.036 12.0037 16.036C14.2751 16.036 16.1073 14.2325 16.1073 11.9965C16.1073 9.76059 14.2751 7.95708 12.0037 7.95708ZM12.0037 14.6227C10.5358 14.6227 9.33583 13.445 9.33583 11.9965C9.33583 10.5481 10.5323 9.37036 12.0037 9.37036C13.4751 9.37036 14.6715 10.5481 14.6715 11.9965C14.6715 13.445 13.4715 14.6227 12.0037 14.6227ZM17.2322 7.79184C17.2322 8.31567 16.8037 8.73403 16.2751 8.73403C15.743 8.73403 15.318 8.31216 15.318 7.79184C15.318 7.27153 15.7465 6.84966 16.2751 6.84966C16.8037 6.84966 17.2322 7.27153 17.2322 7.79184ZM19.9501 8.74809C19.8894 7.48598 19.5965 6.36802 18.6572 5.44692C17.7215 4.52583 16.5858 4.23755 15.3037 4.17427C13.9823 4.10044 10.0215 4.10044 8.70011 4.17427C7.42154 4.23403 6.28583 4.52231 5.34654 5.44341C4.40726 6.3645 4.11797 7.48247 4.05369 8.74458C3.97869 10.0454 3.97869 13.9442 4.05369 15.245C4.1144 16.5071 4.40726 17.625 5.34654 18.5461C6.28583 19.4672 7.41797 19.7555 8.70011 19.8188C10.0215 19.8926 13.9823 19.8926 15.3037 19.8188C16.5858 19.759 17.7215 19.4707 18.6572 18.5461C19.593 17.625 19.8858 16.5071 19.9501 15.245C20.0251 13.9442 20.0251 10.0489 19.9501 8.74809ZM18.243 16.6407C17.9644 17.3297 17.4251 17.8606 16.7215 18.1383C15.668 18.5497 13.168 18.4547 12.0037 18.4547C10.8394 18.4547 8.33583 18.5461 7.28583 18.1383C6.58583 17.8641 6.04654 17.3332 5.7644 16.6407C5.34654 15.6036 5.44297 13.1426 5.44297 11.9965C5.44297 10.8504 5.35011 8.38598 5.7644 7.35239C6.04297 6.66333 6.58226 6.13247 7.28583 5.85474C8.3394 5.44341 10.8394 5.53833 12.0037 5.53833C13.168 5.53833 15.6715 5.44692 16.7215 5.85474C17.4215 6.12895 17.9608 6.65981 18.243 7.35239C18.6608 8.3895 18.5644 10.8504 18.5644 11.9965C18.5644 13.1426 18.6608 15.6071 18.243 16.6407Z" fill="white"/>
</g>
<defs>
<clipPath id="clip0_111_1874">
<rect width="16" height="18" fill="white" transform="translate(4.00011 3)"/>
</clipPath>
</defs>
</svg>
