<svg width="24" height="24" viewBox="0 0 24 24" fill="none" xmlns="http://www.w3.org/2000/svg">
<g clip-path="url(#clip0_111_1878)">
<path d="M7.6328 18.9999V8.87941H4.2025V18.9999H7.6328ZM5.9181 7.4968C7.1143 7.4968 7.85888 6.71966 7.85888 5.7485C7.8366 4.75544 7.11435 3.99988 5.9408 3.99988C4.76743 3.99988 4.00011 4.75546 4.00011 5.7485C4.00011 6.71971 4.74451 7.4968 5.8957 7.4968H5.91799H5.9181ZM9.53146 18.9999H12.9618V13.3481C12.9618 13.0456 12.9841 12.7435 13.0746 12.5273C13.3226 11.9229 13.887 11.297 14.8346 11.297C16.0759 11.297 16.5725 12.2251 16.5725 13.5856V18.9998H20.0026V13.1968C20.0026 10.0882 18.3103 8.64181 16.0533 8.64181C14.2028 8.64181 13.3903 9.65614 12.9389 10.347H12.9618V8.8792H9.53154C9.57656 9.82885 9.53154 18.9997 9.53154 18.9997L9.53146 18.9999Z" fill="white"/>
</g>
<defs>
<clipPath id="clip0_111_1878">
<rect width="16" height="15" fill="white" transform="translate(4.00011 4)"/>
</clipPath>
</defs>
</svg>
