<svg width="34" height="34" viewBox="0 0 34 34" fill="none" xmlns="http://www.w3.org/2000/svg">
<g clip-path="url(#clip0_1_696)">
<path d="M17.0908 20.8203C18.4018 19.7174 19.342 18.238 19.7839 16.5827C20.2258 14.9274 20.1479 13.1762 19.5609 11.5666C18.974 9.95705 17.9062 8.5669 16.5025 7.58465C15.0987 6.6024 13.4269 6.07556 11.7136 6.07556C10.0004 6.07556 8.32854 6.6024 6.92481 7.58465C5.52107 8.5669 4.45333 9.95705 3.86634 11.5666C3.27936 13.1762 3.20153 14.9274 3.64339 16.5827C4.08526 18.238 5.02545 19.7174 6.33651 20.8203C4.21024 21.7825 2.38055 23.2967 1.03768 25.2055C0.799341 25.5449 0.705341 25.965 0.776294 26.3736C0.847248 26.7822 1.07736 27.1459 1.41617 27.3851C1.67883 27.5728 1.99385 27.6733 2.31671 27.6722C2.56783 27.6729 2.81538 27.6128 3.03814 27.4968C3.26091 27.3809 3.45224 27.2127 3.59573 27.0066C4.51079 25.7033 5.72618 24.6395 7.13917 23.9051C8.55216 23.1707 10.1212 22.7873 11.7136 22.7873C13.3061 22.7873 14.8751 23.1707 16.2881 23.9051C17.7011 24.6395 18.9165 25.7033 19.8316 27.0066C19.945 27.1859 20.0937 27.3403 20.2686 27.4604C20.4435 27.5804 20.641 27.6637 20.8491 27.7052C21.0572 27.7466 21.2715 27.7454 21.4791 27.7015C21.6867 27.6576 21.8832 27.5719 22.0567 27.4498C22.2302 27.3276 22.377 27.1715 22.4883 26.9909C22.5996 26.8103 22.6731 26.6089 22.7042 26.399C22.7354 26.1891 22.7235 25.9751 22.6695 25.77C22.6154 25.5648 22.5202 25.3728 22.3896 25.2055C21.0467 23.2967 19.217 21.7825 17.0908 20.8203ZM6.49312 14.4382C6.49312 13.4057 6.7993 12.3963 7.37294 11.5378C7.94658 10.6793 8.76191 10.0102 9.71584 9.61506C10.6698 9.21993 11.7194 9.11655 12.7321 9.31799C13.7448 9.51942 14.675 10.0166 15.4051 10.7467C16.1352 11.4768 16.6324 12.407 16.8339 13.4197C17.0353 14.4324 16.9319 15.4821 16.5368 16.436C16.1416 17.3899 15.4725 18.2053 14.614 18.7789C13.7555 19.3525 12.7462 19.6587 11.7136 19.6587C10.3291 19.6587 9.00122 19.1087 8.02218 18.1297C7.04314 17.1506 6.49312 15.8228 6.49312 14.4382ZM32.6479 27.3851C32.3853 27.5728 32.0703 27.6733 31.7474 27.6722C31.4967 27.6708 31.2499 27.6096 31.0275 27.4939C30.8051 27.3782 30.6134 27.2111 30.4684 27.0066C29.5514 25.7056 28.3355 24.6437 26.9228 23.9101C25.5102 23.1766 23.9422 22.7928 22.3505 22.791C21.9351 22.791 21.5367 22.626 21.243 22.3323C20.9493 22.0386 20.7843 21.6402 20.7843 21.2249C20.7843 20.8095 20.9493 20.4111 21.243 20.1174C21.5367 19.8237 21.9351 19.6587 22.3505 19.6587C23.735 19.6587 25.0629 19.1087 26.0419 18.1297C27.021 17.1506 27.571 15.8228 27.571 14.4382C27.571 13.0536 27.021 11.7258 26.0419 10.7467C25.0629 9.76769 23.735 9.21768 22.3505 9.21768C21.8738 9.21678 21.3993 9.28267 20.9409 9.41344C20.7419 9.47282 20.533 9.49201 20.3264 9.46988C20.1199 9.44776 19.9198 9.38476 19.7378 9.28457C19.5559 9.18438 19.3957 9.04899 19.2665 8.88629C19.1374 8.72358 19.0419 8.53681 18.9856 8.33685C18.9294 8.13689 18.9134 7.92774 18.9388 7.72156C18.9641 7.51539 19.0302 7.31632 19.1333 7.13594C19.2363 6.95555 19.3741 6.79747 19.5388 6.67088C19.7035 6.54429 19.8918 6.45174 20.0926 6.39859C20.8269 6.18952 21.5869 6.08409 22.3505 6.08536C24.0649 6.08038 25.7392 6.60389 27.1454 7.58461C28.5516 8.56533 29.6214 9.9556 30.2091 11.5661C30.7968 13.1767 30.8739 14.9292 30.4299 16.5851C29.9858 18.241 29.0423 19.7199 27.7276 20.8203C29.8539 21.7825 31.6835 23.2967 33.0264 25.2055C33.1461 25.373 33.2314 25.5625 33.2772 25.7632C33.323 25.9639 33.3284 26.1717 33.2932 26.3745C33.258 26.5773 33.1828 26.7711 33.072 26.9446C32.9612 27.1181 32.8171 27.2678 32.6479 27.3851Z" fill="#099DCC"/>
</g>
<defs>
<clipPath id="clip0_1_696">
<rect width="33.4113" height="33.4113" fill="white" transform="translate(0.228516 0.342773)"/>
</clipPath>
</defs>
</svg>
