<svg width="35" height="36" viewBox="0 0 35 36" fill="none" xmlns="http://www.w3.org/2000/svg">
<g filter="url(#filter0_d_1_702)">
<mask id="path-1-inside-1_1_702" fill="white">
<path d="M20.3151 16.8011C20.1475 16.8011 19.9919 16.755 19.8536 16.6809V16.6829C19.8536 16.9466 19.7512 17.1942 19.5652 17.3797C19.3792 17.5657 19.1318 17.6682 18.8684 17.6682C18.6983 17.6682 18.5407 17.6209 18.401 17.5448C18.3869 17.7861 18.2905 18.0116 18.1184 18.1838C17.9325 18.3697 17.685 18.4722 17.4214 18.4722C16.8978 18.4722 16.4726 18.0606 16.4419 17.5447C16.2799 17.6322 16.0967 17.6782 15.9078 17.666C15.3927 17.6322 14.9892 17.1872 14.9892 16.6525V12.2209L14.4846 13.0951C14.2924 13.4295 13.9326 13.6371 13.5453 13.6371C13.3565 13.6371 13.1701 13.5876 13.0049 13.493C12.7993 13.3738 12.6522 13.1824 12.591 12.9534C12.5295 12.7243 12.5613 12.4847 12.6802 12.2794C12.6804 12.2794 14.3313 9.42051 14.432 9.2449C14.444 9.2185 14.4781 9.14192 14.5071 9.07665C14.5348 9.01433 14.5586 8.95037 14.5814 8.88609C15.0793 7.48053 16.312 6.60743 17.7988 6.60743C19.7295 6.60743 21.3002 8.31064 21.3002 10.4042L21.3003 15.8157C21.3003 16.0791 21.198 16.3265 21.0122 16.5127C20.8262 16.6986 20.5788 16.8011 20.3151 16.8011L20.3151 16.8011ZM17.7988 7.13097C16.5213 7.13097 15.503 7.85256 15.0749 9.06118C15.0475 9.13793 15.019 9.21467 14.9857 9.28946C14.8891 9.50609 14.8891 9.50609 14.8618 9.53725L14.8582 9.53413C14.7234 9.78848 14.323 10.482 13.1335 12.5414C13.0847 12.6259 13.0717 12.724 13.0966 12.8178C13.1219 12.9116 13.1824 12.9906 13.2662 13.039C13.5263 13.1884 13.8825 13.092 14.0307 12.8337L15.0244 11.1134C15.0837 11.0109 15.2038 10.9605 15.3189 10.9917C15.4334 11.0224 15.5129 11.1262 15.5129 11.2446V16.6527C15.5129 16.9079 15.7054 17.1281 15.9421 17.1437C16.0785 17.1509 16.2058 17.1051 16.3014 17.0097C16.3883 16.9228 16.4362 16.807 16.4362 16.6832V13.1462C16.4362 13.0016 16.5534 12.8843 16.6981 12.8843C16.8427 12.8843 16.96 13.0014 16.96 13.1462L16.9598 17.4871C16.9598 17.7417 17.1669 17.9488 17.4215 17.9488C17.5451 17.9488 17.6612 17.9009 17.7483 17.814C17.8352 17.7269 17.8831 17.6108 17.8831 17.4871V13.1462C17.8831 13.0015 18.0002 12.8843 18.145 12.8843C18.2896 12.8843 18.4069 13.0014 18.4069 13.1462L18.4067 16.6425V16.6832C18.4067 16.9375 18.6139 17.1446 18.8685 17.1446C18.992 17.1446 19.1078 17.0966 19.1954 17.0093C19.2823 16.9226 19.3302 16.8068 19.3302 16.683V13.146C19.3302 13.0014 19.4473 12.8841 19.5921 12.8841C19.7367 12.8841 19.854 13.0012 19.854 13.146L19.8536 15.8158C19.8536 16.0705 20.0608 16.2776 20.3151 16.2776C20.4389 16.2776 20.5547 16.2296 20.6416 16.1428C20.7289 16.0556 20.7766 15.9395 20.7766 15.8158L20.7767 10.4043C20.7767 8.5996 19.4409 7.13102 17.7988 7.13102L17.7988 7.13097Z"/>
</mask>
<path d="M20.3151 16.8011V15.873H23.5941L20.8015 17.5915L20.3151 16.8011ZM19.8536 16.6809H18.9256V15.1302L20.2922 15.863L19.8536 16.6809ZM19.5652 17.3797L18.9089 16.7234L18.9098 16.7226L19.5652 17.3797ZM18.401 17.5448L17.4745 17.4907L17.5599 16.03L18.8448 16.7298L18.401 17.5448ZM18.1184 18.1838L18.775 18.8397L18.7747 18.84L18.1184 18.1838ZM16.4419 17.5447L16.0006 16.7282L17.282 16.0357L17.3684 17.4896L16.4419 17.5447ZM15.9078 17.666L15.8483 18.5922L15.847 18.5921L15.9078 17.666ZM14.9892 12.2209L14.1854 11.7569L15.9173 8.75654V12.2209H14.9892ZM14.4846 13.0951L13.68 12.6326L13.6808 12.6312L14.4846 13.0951ZM13.0049 13.493L12.5435 14.2983L12.5394 14.2959L13.0049 13.493ZM12.591 12.9534L13.4874 12.7128L13.4876 12.7139L12.591 12.9534ZM12.6802 12.2794L11.877 11.8144L12.1452 11.3513H12.6802V12.2794ZM14.432 9.2449L15.2773 9.62816L15.259 9.66835L15.2371 9.70663L14.432 9.2449ZM14.5071 9.07665L13.6591 8.69952L13.6591 8.69951L14.5071 9.07665ZM14.5814 8.88609L15.4562 9.19596L15.4561 9.19622L14.5814 8.88609ZM21.3002 10.4042L20.3721 10.4042V10.4042H21.3002ZM21.3003 15.8157L22.2284 15.8157V15.8157H21.3003ZM21.0122 16.5127L21.6691 17.1683L21.6685 17.1689L21.0122 16.5127ZM20.3151 16.8011V17.7292H17.0361L19.8287 16.0107L20.3151 16.8011ZM17.7988 7.13097V6.20288H19.0292L18.6912 7.38594L17.7988 7.13097ZM15.0749 9.06118L15.9497 9.3711L15.949 9.3731L15.0749 9.06118ZM14.9857 9.28946L15.8335 9.66691L15.8333 9.6674L14.9857 9.28946ZM14.8618 9.53725L15.5607 10.1479L14.9536 10.8428L14.2552 10.2396L14.8618 9.53725ZM14.8582 9.53413L14.0382 9.09953L14.5835 8.07057L15.4649 8.83173L14.8582 9.53413ZM13.1335 12.5414L13.9372 13.0056L13.9368 13.0063L13.1335 12.5414ZM13.0966 12.8178L12.2004 13.059L12.1997 13.0561L13.0966 12.8178ZM13.2662 13.039L12.8039 13.8438L12.8022 13.8428L13.2662 13.039ZM14.0307 12.8337L13.2258 12.3717L13.2271 12.3695L14.0307 12.8337ZM15.0244 11.1134L14.2207 10.6492L14.2213 10.6482L15.0244 11.1134ZM15.3189 10.9917L15.0787 11.8882L15.0764 11.8875L15.3189 10.9917ZM15.9421 17.1437L15.8931 18.0705L15.8811 18.0698L15.9421 17.1437ZM16.3014 17.0097L16.9577 17.666L16.9571 17.6665L16.3014 17.0097ZM16.96 13.1462H17.8881V13.1462L16.96 13.1462ZM16.9598 17.4871H16.0317V17.4871L16.9598 17.4871ZM17.7483 17.814L18.4052 18.4696L18.4039 18.4709L17.7483 17.814ZM18.4069 13.1462H19.335V13.1462L18.4069 13.1462ZM18.4067 16.6425H17.4786V16.6425L18.4067 16.6425ZM19.1954 17.0093L19.851 17.6662L19.8504 17.6668L19.1954 17.0093ZM19.854 13.146H20.7821V13.1461L19.854 13.146ZM19.8536 15.8158H18.9255V15.8157L19.8536 15.8158ZM20.6416 16.1428L21.2979 16.7991L21.2973 16.7997L20.6416 16.1428ZM20.7766 15.8158H19.8485V15.8158L20.7766 15.8158ZM20.7767 10.4043H21.7048V10.4044L20.7767 10.4043ZM17.7988 7.13102V8.05912H16.5684L16.9064 6.87606L17.7988 7.13102ZM20.3151 17.7292C19.9734 17.7292 19.6683 17.6346 19.4151 17.4988L20.2922 15.863C20.3042 15.8694 20.3118 15.8719 20.3149 15.8727C20.3175 15.8734 20.3171 15.873 20.3151 15.873V17.7292ZM20.7817 16.6809V16.6829H18.9256V16.6809H20.7817ZM20.7817 16.6829C20.7817 17.192 20.582 17.6764 20.2206 18.0368L18.9098 16.7226C18.9164 16.716 18.9197 16.7103 18.9216 16.7057C18.9236 16.701 18.9256 16.6939 18.9256 16.6829H20.7817ZM20.2214 18.036C19.8613 18.3961 19.3777 18.5963 18.8684 18.5963V16.7401C18.879 16.7401 18.886 16.7381 18.8908 16.7362C18.8955 16.7342 18.9017 16.7307 18.9089 16.7234L20.2214 18.036ZM18.8684 18.5963C18.5222 18.5963 18.2133 18.4994 17.9571 18.3599L18.8448 16.7298C18.8569 16.7364 18.8646 16.7389 18.8676 16.7397C18.8702 16.7404 18.87 16.7401 18.8684 16.7401V18.5963ZM19.3275 17.599C19.3008 18.0558 19.1155 18.4989 18.775 18.8397L17.4618 17.5278C17.4653 17.5244 17.4673 17.5214 17.4689 17.5175C17.4708 17.5133 17.4736 17.5048 17.4745 17.4907L19.3275 17.599ZM18.7747 18.84C18.4145 19.2003 17.9308 19.4003 17.4214 19.4003V17.5441C17.4322 17.5441 17.4393 17.5422 17.444 17.5402C17.4488 17.5382 17.4549 17.5347 17.4622 17.5275L18.7747 18.84ZM17.4214 19.4003C16.3968 19.4003 15.5746 18.5962 15.5154 17.5997L17.3684 17.4896C17.3693 17.5054 17.3758 17.5193 17.3872 17.5302C17.3928 17.5355 17.3984 17.5389 17.4033 17.5409C17.4077 17.5427 17.4131 17.5441 17.4214 17.5441V19.4003ZM16.8832 18.3612C16.5834 18.5232 16.228 18.6166 15.8483 18.5922L15.9673 16.7398C15.9673 16.7398 15.9693 16.74 15.9742 16.7389C15.9794 16.7377 15.9885 16.7348 16.0006 16.7282L16.8832 18.3612ZM15.847 18.5921C14.8165 18.5246 14.0612 17.6482 14.0612 16.6525H15.9173C15.9173 16.6839 15.9287 16.7081 15.943 16.7238C15.9569 16.7392 15.9664 16.7398 15.9685 16.7399L15.847 18.5921ZM14.0612 16.6525V12.2209H15.9173V16.6525H14.0612ZM15.793 12.6849L15.2884 13.5591L13.6808 12.6312L14.1854 11.7569L15.793 12.6849ZM15.2893 13.5576C14.9306 14.1816 14.2631 14.5652 13.5453 14.5652V12.709C13.6022 12.709 13.6542 12.6775 13.68 12.6326L15.2893 13.5576ZM13.5453 14.5652C13.1943 14.5652 12.8488 14.4732 12.5435 14.2983L13.4663 12.6877C13.4913 12.702 13.5187 12.709 13.5453 12.709V14.5652ZM12.5394 14.2959C12.1228 14.0543 11.8195 13.6612 11.6944 13.193L13.4876 12.7139C13.4868 12.7107 13.4845 12.7051 13.48 12.6993C13.4756 12.6935 13.4715 12.6907 13.4704 12.6901L12.5394 14.2959ZM11.6946 13.194C11.5691 12.7262 11.6348 12.2327 11.877 11.8144L13.4834 12.7445C13.4847 12.7422 13.487 12.7369 13.488 12.7294C13.489 12.7219 13.4882 12.7159 13.4874 12.7128L11.6946 13.194ZM12.6802 11.3513C12.225 11.4707 11.8842 11.8022 11.8816 11.8065C11.8808 11.8079 11.8795 11.8101 11.8791 11.8108C11.8789 11.8112 11.8785 11.8119 11.8784 11.8121C11.8783 11.8122 11.8781 11.8125 11.8781 11.8126C11.8779 11.8128 11.878 11.8127 11.8783 11.8121C11.879 11.811 11.88 11.8092 11.8816 11.8066C11.8846 11.8013 11.8892 11.7934 11.8952 11.7829C11.9073 11.762 11.9251 11.7312 11.9478 11.692C11.9931 11.6135 12.058 11.5012 12.1361 11.3658C12.2925 11.0951 12.502 10.7323 12.7147 10.364C13.1407 9.62609 13.5774 8.86944 13.6269 8.78318L15.2371 9.70663C15.1858 9.79598 14.7468 10.5566 14.3221 11.2921C14.1095 11.6604 13.8999 12.0233 13.7435 12.2941C13.6653 12.4295 13.6004 12.5419 13.5551 12.6204C13.5324 12.6597 13.5145 12.6906 13.5024 12.7116C13.4963 12.7221 13.4916 12.7303 13.4884 12.7359C13.4868 12.7386 13.4855 12.7409 13.4845 12.7425C13.4841 12.7433 13.4835 12.7443 13.483 12.7452C13.4828 12.7455 13.4822 12.7466 13.4815 12.7478C13.481 12.7486 13.4797 12.7508 13.4788 12.7522C13.4763 12.7566 13.1355 13.0882 12.6802 13.2075V11.3513ZM13.5867 8.86164C13.597 8.83911 13.6293 8.76647 13.6591 8.69952L15.3551 9.45377C15.3268 9.51737 15.291 9.59789 15.2773 9.62816L13.5867 8.86164ZM13.6591 8.69951C13.672 8.67051 13.6863 8.63345 13.7067 8.57596L15.4561 9.19622C15.4309 9.2673 15.3977 9.35815 15.3551 9.45379L13.6591 8.69951ZM13.7066 8.57621C14.3352 6.8016 15.9173 5.67933 17.7988 5.67933V7.53552C16.7067 7.53552 15.8234 8.15946 15.4562 9.19596L13.7066 8.57621ZM17.7988 5.67933C20.3114 5.67933 22.2283 7.87027 22.2283 10.4042H20.3721C20.3721 8.75101 19.1475 7.53552 17.7988 7.53552V5.67933ZM22.2283 10.4042L22.2284 15.8157L20.3722 15.8157L20.3721 10.4042L22.2283 10.4042ZM22.2284 15.8157C22.2284 16.3246 22.0287 16.808 21.6691 17.1683L20.3553 15.857C20.3627 15.8497 20.3662 15.8434 20.3683 15.8386C20.3703 15.8337 20.3722 15.8265 20.3722 15.8157H22.2284ZM21.6685 17.1689C21.3082 17.5292 20.8246 17.7292 20.3151 17.7292V15.873C20.326 15.873 20.3331 15.8711 20.3378 15.8691C20.3426 15.8671 20.3487 15.8637 20.3559 15.8564L21.6685 17.1689ZM19.8287 16.0107L19.8287 16.0107L20.8015 17.5915L20.8015 17.5916L19.8287 16.0107ZM17.7988 8.05906C16.9164 8.05906 16.2473 8.5311 15.9497 9.3711L14.2001 8.75126C14.7588 7.17401 16.1262 6.20288 17.7988 6.20288V8.05906ZM15.949 9.3731C15.9197 9.45519 15.8816 9.55888 15.8335 9.66691L14.1378 8.912C14.1563 8.87047 14.1753 8.82066 14.2008 8.74926L15.949 9.3731ZM15.8333 9.6674C15.7908 9.76272 15.7552 9.84322 15.728 9.89775C15.711 9.93159 15.6837 9.98375 15.644 10.0415C15.6037 10.1001 15.564 10.1442 15.5607 10.1479L14.1629 8.92659C14.1651 8.9241 14.1644 8.92491 14.1633 8.92619C14.1619 8.92783 14.1583 8.93204 14.1536 8.93781C14.1487 8.94378 14.1425 8.9515 14.1355 8.96068C14.1285 8.96994 14.1214 8.97979 14.1142 8.99018C14.0997 9.01134 14.0885 9.02987 14.0805 9.04389C14.0731 9.05697 14.0685 9.06602 14.0675 9.06806C14.0665 9.07017 14.0671 9.06893 14.0703 9.06218C14.0733 9.05564 14.0777 9.04621 14.0839 9.0325C14.09 9.0189 14.0974 9.00248 14.1065 8.98219C14.1155 8.96193 14.1259 8.93872 14.138 8.91151L15.8333 9.6674ZM14.2552 10.2396L14.2516 10.2365L15.4649 8.83173L15.4685 8.83484L14.2552 10.2396ZM15.6783 9.96873C15.533 10.2428 15.1184 10.9605 13.9372 13.0056L12.3299 12.0773C13.5276 10.0035 13.9138 9.33416 14.0382 9.09953L15.6783 9.96873ZM13.9368 13.0063C14.0111 12.8779 14.0318 12.7231 13.9936 12.5794L12.1997 13.0561C12.1116 12.7248 12.1582 12.3738 12.3302 12.0766L13.9368 13.0063ZM13.9928 12.5765C13.9546 12.4346 13.8608 12.3106 13.7302 12.2352L12.8022 13.8428C12.504 13.6706 12.2891 13.3885 12.2005 13.059L13.9928 12.5765ZM13.7285 12.2342C13.6228 12.1735 13.5201 12.1739 13.4491 12.193C13.3785 12.2121 13.2878 12.2636 13.2258 12.3717L14.8357 13.2956C14.4312 14.0004 13.5068 14.2475 12.8039 13.8438L13.7285 12.2342ZM13.2271 12.3695L14.2207 10.6492L15.828 11.5776L14.8344 13.2979L13.2271 12.3695ZM14.2213 10.6482C14.4893 10.1854 15.0365 9.95377 15.5614 10.0958L15.0764 11.8875C15.3711 11.9673 15.6781 11.8364 15.8275 11.5785L14.2213 10.6482ZM15.5591 10.0952C16.0797 10.2347 16.441 10.7065 16.441 11.2446H14.5848C14.5848 11.5458 14.787 11.81 15.0787 11.8882L15.5591 10.0952ZM16.441 11.2446V16.6527H14.5848V11.2446H16.441ZM16.441 16.6527C16.441 16.5469 16.4018 16.4508 16.3375 16.3772C16.2733 16.3038 16.16 16.2279 16.003 16.2176L15.8811 18.0698C15.0999 18.0183 14.5848 17.3378 14.5848 16.6527H16.441ZM15.9911 16.2169C15.8815 16.2111 15.7475 16.2512 15.6457 16.3529L16.9571 17.6665C16.6641 17.959 16.2756 18.0907 15.8931 18.0705L15.9911 16.2169ZM15.6451 16.3534C15.5571 16.4415 15.5081 16.5622 15.5081 16.6832H17.3643C17.3643 17.0518 17.2196 17.404 16.9577 17.666L15.6451 16.3534ZM15.5081 16.6832V13.1462H17.3643V16.6832H15.5081ZM15.5081 13.1462C15.5081 12.489 16.0409 11.9562 16.6981 11.9562V13.8124C17.066 13.8124 17.3643 13.5141 17.3643 13.1462H15.5081ZM16.6981 11.9562C17.3549 11.9562 17.8881 12.4884 17.8881 13.1462H16.0319C16.0319 13.5143 16.3305 13.8124 16.6981 13.8124V11.9562ZM17.8881 13.1462L17.8879 17.4872L16.0317 17.4871L16.0319 13.1462L17.8881 13.1462ZM17.8879 17.4871C17.8879 17.2291 17.6795 17.0207 17.4215 17.0207V18.8769C16.6544 18.8769 16.0317 18.2542 16.0317 17.4871H17.8879ZM17.4215 17.0207C17.3007 17.0207 17.1806 17.0694 17.0927 17.1571L18.4039 18.4709C18.1419 18.7324 17.7896 18.8769 17.4215 18.8769V17.0207ZM17.0914 17.1583C17.0037 17.2462 16.955 17.3664 16.955 17.4871H18.8112C18.8112 17.8552 18.6668 18.2075 18.4052 18.4696L17.0914 17.1583ZM16.955 17.4871V13.1462H18.8112V17.4871H16.955ZM16.955 13.1462C16.955 12.4894 17.4872 11.9562 18.145 11.9562V13.8124C18.5131 13.8124 18.8112 13.5137 18.8112 13.1462H16.955ZM18.145 11.9562C18.8018 11.9562 19.335 12.4884 19.335 13.1462H17.4788C17.4788 13.5143 17.7774 13.8124 18.145 13.8124V11.9562ZM19.335 13.1462L19.3348 16.6425L17.4786 16.6425L17.4788 13.1461L19.335 13.1462ZM19.3348 16.6425V16.6832H17.4786V16.6425H19.3348ZM19.3348 16.6832C19.3348 16.4245 19.126 16.2165 18.8685 16.2165V18.0727C18.1017 18.0727 17.4786 17.4505 17.4786 16.6832H19.3348ZM18.8685 16.2165C18.7452 16.2165 18.6258 16.2667 18.5403 16.3519L19.8504 17.6668C19.5898 17.9265 19.2388 18.0727 18.8685 18.0727V16.2165ZM18.5397 16.3525C18.4509 16.4411 18.4021 16.5622 18.4021 16.683H20.2583C20.2583 17.0515 20.1136 17.4041 19.851 17.6662L18.5397 16.3525ZM18.4021 16.683V13.146H20.2583V16.683H18.4021ZM18.4021 13.146C18.4021 12.4892 18.9343 11.956 19.5921 11.956V13.8122C19.9602 13.8122 20.2583 13.5136 20.2583 13.146H18.4021ZM19.5921 11.956C20.2489 11.956 20.7821 12.4883 20.7821 13.146H18.9259C18.9259 13.5142 19.2245 13.8122 19.5921 13.8122V11.956ZM20.7821 13.1461L20.7817 15.8159L18.9255 15.8157L18.9259 13.1459L20.7821 13.1461ZM20.7817 15.8158C20.7817 15.5584 20.5738 15.3495 20.3151 15.3495V17.2057C19.5477 17.2057 18.9255 16.5826 18.9255 15.8158H20.7817ZM20.3151 15.3495C20.1934 15.3495 20.0733 15.3988 19.986 15.4859L21.2973 16.7997C21.0361 17.0603 20.6845 17.2057 20.3151 17.2057V15.3495ZM19.9853 15.4866C19.897 15.5749 19.8485 15.6955 19.8485 15.8158H21.7047C21.7047 16.1834 21.5607 16.5362 21.2979 16.7991L19.9853 15.4866ZM19.8485 15.8158L19.8486 10.4043L21.7048 10.4044L21.7047 15.8158L19.8485 15.8158ZM19.8486 10.4043C19.8486 9.02759 18.8476 8.05912 17.7988 8.05912V6.20293C20.0341 6.20293 21.7048 8.17161 21.7048 10.4043H19.8486ZM16.9064 6.87606L16.9064 6.876L18.6912 7.38594L18.6912 7.38599L16.9064 6.87606Z" fill="#099DCC" mask="url(#path-1-inside-1_1_702)"/>
<path d="M11.8325 21.776C11.7082 21.8508 11.5475 21.8105 11.4732 21.6863C11.3988 21.5623 11.4391 21.4015 11.5629 21.327M11.8325 21.776L14.0951 18.7315C14.3138 18.6001 14.602 18.652 14.7368 18.8469M11.8325 21.776L14.8654 19.9565H14.8656L14.8659 19.9563M11.8325 21.776L16.0299 20.3347C16.1359 20.271 16.2106 20.1704 16.2405 20.0508M11.5629 21.327L14.596 19.5075C14.7019 19.4439 14.7769 19.343 14.8067 19.2238M11.5629 21.327L11.5936 21.3782L11.6976 21.5516L11.6979 21.5519L11.7447 21.63L11.8017 21.7249L11.8018 21.7249L11.8018 21.7248L11.8021 21.7247M11.5629 21.327L11.5937 21.3782M14.8067 19.2238C14.8395 19.0929 14.8146 18.9591 14.7368 18.8469M14.8067 19.2238L14.8816 19.2425L14.8744 19.0887C14.8695 18.9827 14.8385 18.8888 14.7861 18.8132L14.7859 18.813L14.7368 18.8469M14.8067 19.2238L14.8816 19.2426L14.8889 19.4014L14.7371 19.4925H14.7369L14.6267 19.5586L14.6267 19.5586L14.6266 19.5586L11.5938 21.3781M14.7368 18.8469L14.7859 18.8129L12.5466 22.9654C12.6418 22.9082 12.6733 22.7843 12.6156 22.6881C12.5583 22.5928 12.4341 22.5614 12.3383 22.6188L15.3712 20.7994C15.4409 20.7576 15.5139 20.726 15.5885 20.7042L16.0589 20.383L16.059 20.383L16.0848 20.3653C16.1952 20.29 16.2682 20.1856 16.2982 20.0654L16.2983 20.0652L16.2405 20.0508M11.5938 21.3781C11.6893 21.321 11.8135 21.352 11.8711 21.4474C11.8712 21.4476 11.8713 21.4478 11.8714 21.448C11.9287 21.5441 11.8971 21.6675 11.8021 21.7247M11.5938 21.3781C11.5938 21.3781 11.5937 21.3781 11.5937 21.3782M11.5938 21.3781L11.5937 21.3782M11.8021 21.7247L14.8347 19.9054L14.8348 19.9054L14.8349 19.9053C14.835 19.9053 14.8351 19.9052 14.8352 19.9051L14.8654 19.9555L14.8656 19.9558L14.8659 19.9563M11.8021 21.7247L11.6981 21.5518L11.6979 21.5514L11.6627 21.4929L11.5937 21.3782M14.8659 19.9563V19.8859C14.9244 19.8475 14.978 19.8031 15.0258 19.7535L15.525 19.493L15.525 19.4929L15.5527 19.4785C15.6329 19.4366 15.7139 19.417 15.7907 19.417C15.8323 19.417 15.8752 19.4222 15.9189 19.433C15.9189 19.433 15.9189 19.433 15.9189 19.433C15.9191 19.4331 15.9192 19.4331 15.9194 19.4331L16.0171 19.0408M14.8659 19.9563L15.555 19.5429C15.6606 19.4796 15.7843 19.4611 15.9045 19.4909C16.024 19.5208 16.1249 19.5956 16.1883 19.7013C16.2518 19.8073 16.2703 19.9314 16.2405 20.0508M16.0171 19.0408C16.017 19.0408 16.017 19.0407 16.017 19.0407M16.0171 19.0408C16.2562 19.1005 16.4595 19.2515 16.5862 19.4625L16.6373 19.4318M16.0171 19.0408L16.0315 18.9828M16.017 19.0407L15.919 19.4331C16.0548 19.467 16.1673 19.5504 16.2393 19.6705C16.2393 19.6706 16.2394 19.6706 16.2394 19.6707C16.2394 19.6707 16.2394 19.6707 16.2394 19.6707C16.3117 19.7914 16.3321 19.9299 16.2983 20.0651L16.2983 20.0652L16.2405 20.0508M16.017 19.0407C16.017 19.0407 16.0169 19.0407 16.0169 19.0407L16.0163 19.0406C15.9446 19.0228 15.8719 19.0136 15.7997 19.013M16.017 19.0407L16.0315 18.9828M15.5794 21.1461L15.841 20.9891L16.1108 21.1483C16.1915 21.1959 16.2526 21.2556 16.2939 21.3246L16.294 21.3248C16.2941 21.3249 16.2941 21.325 16.2942 21.325L16.2433 21.3557M15.5794 21.1461L16.3532 21.7197C16.3869 21.584 16.3664 21.4457 16.2942 21.3251L16.2433 21.3557M15.5794 21.1461L15.6101 21.1972M15.5794 21.1461L15.5794 21.1461L15.6101 21.1972M16.2433 21.3557C16.1122 21.1374 15.828 21.0664 15.6101 21.1972M16.2433 21.3557C16.3069 21.4614 16.3254 21.5857 16.2956 21.7053L15.6101 21.1972M16.6855 21.0754C16.6877 21.079 16.6899 21.0826 16.6921 21.0862L16.6855 21.0754ZM16.6855 21.0754C16.6698 21.0876 16.6539 21.0995 16.6377 21.1111C16.6388 21.1129 16.6398 21.1147 16.6409 21.1165L16.6855 21.0754ZM16.6132 20.3676C16.6467 20.3035 16.6728 20.2351 16.6907 20.1634L16.6132 20.3676ZM16.6132 20.3676C16.6299 20.378 16.6464 20.3887 16.6628 20.3997C16.7 20.3305 16.7289 20.2561 16.7485 20.1777C16.8123 19.9227 16.7727 19.6578 16.6373 19.4318M16.6132 20.3676L16.6907 20.1632C16.7505 19.9241 16.7128 19.6738 16.5864 19.4629L16.5863 19.4626C16.5862 19.4625 16.5862 19.4625 16.5862 19.4625L16.6373 19.4318M16.6373 19.4318C16.502 19.2062 16.2868 19.0466 16.0315 18.9828M16.0315 18.9828L15.7944 18.953M15.7944 18.953C15.7966 18.973 15.7983 18.993 15.7997 19.013M15.7944 18.953C15.7932 18.953 15.792 18.953 15.7907 18.953C15.6338 18.953 15.4797 18.9932 15.338 19.0671M15.7944 18.953L15.338 19.0671M15.7997 19.013C15.8004 19.0239 15.801 19.0347 15.8015 19.0456L15.7907 19.0461L15.5026 19.0595M15.7997 19.013C15.7967 19.013 15.7937 19.013 15.7907 19.013C15.6928 19.0131 15.5957 19.0287 15.5026 19.0595M15.5026 19.0595L15.338 19.0671M15.5026 19.0595C15.4554 19.0751 15.4092 19.0946 15.3645 19.118C15.3483 19.1264 15.3322 19.1354 15.3164 19.1449L15.3163 19.145L15.2833 19.1648M15.338 19.0671L15.0735 19.2907L15.0736 19.2906L15.2569 19.3365C15.2569 19.3365 15.2568 19.3366 15.2568 19.3366C15.2711 19.2795 15.2799 19.222 15.2833 19.1648M15.338 19.0671L15.2671 18.9314M15.338 19.0671C15.3306 18.909 15.2889 18.7533 15.2089 18.6144C15.1908 18.6225 15.1727 18.6309 15.1549 18.6397M15.2833 19.1648C15.2851 19.133 15.2854 19.1012 15.2839 19.0697C15.2818 19.0231 15.2762 18.9769 15.2671 18.9314M15.2833 19.1648L15.2671 18.9314M15.2671 18.9314L15.1232 18.6558C15.1337 18.6503 15.1443 18.6449 15.1549 18.6397M15.2671 18.9314L15.1184 18.5828C15.1313 18.6014 15.1434 18.6204 15.1549 18.6397M15.2671 18.9314C15.2467 18.8294 15.209 18.7309 15.1549 18.6397M16.3465 20.7486L16.4258 20.6141C16.3915 20.6462 16.3545 20.6759 16.3152 20.7027C16.3001 20.7131 16.2847 20.723 16.2689 20.7325L16.2686 20.7326L16.2351 20.7527L16.3465 20.7486ZM8.93572 18.589L8.88296 18.5612C8.87326 18.5786 8.84911 18.6221 8.81345 18.6864C8.80462 18.7023 8.79508 18.7195 8.78488 18.7379C8.80306 18.747 8.8214 18.7549 8.83977 18.7618C8.87115 18.7053 8.90312 18.6477 8.93572 18.589ZM13.0827 23.8596C13.0826 23.8596 13.0826 23.8596 13.0825 23.8597L13.0827 23.8596Z" stroke="#099DCC" stroke-width="0.928093"/>
<path d="M24.7845 19.425L24.7844 19.4251L24.7845 19.425ZM24.7845 19.425C24.6873 19.2509 24.6912 19.0364 24.7942 18.8647L24.7845 19.425ZM19.0429 19.0128C18.9704 19.0134 18.8975 19.0226 18.8256 19.0406L19.0429 19.0128ZM19.0429 19.0128C19.0443 18.9928 19.046 18.9729 19.0482 18.9529L19.0429 19.0128ZM24.3669 19.7505L24.3274 19.6795L24.3669 19.7505ZM23.2487 21.378C23.2486 21.3779 23.2485 21.3779 23.2484 21.3778L23.2486 21.3779L23.2487 21.378ZM21.7598 23.8599C21.7597 23.8599 21.7596 23.8598 21.7595 23.8597L21.7598 23.8599ZM21.7594 23.8597L21.7595 23.8597L21.7594 23.8597Z" stroke="#099DCC" stroke-width="0.928093"/>
</g>
<defs>
<filter id="filter0_d_1_702" x="-3.39169" y="0.342773" width="41.4113" height="41.4113" filterUnits="userSpaceOnUse" color-interpolation-filters="sRGB">
<feFlood flood-opacity="0" result="BackgroundImageFix"/>
<feColorMatrix in="SourceAlpha" type="matrix" values="0 0 0 0 0 0 0 0 0 0 0 0 0 0 0 0 0 0 127 0" result="hardAlpha"/>
<feOffset dy="4"/>
<feGaussianBlur stdDeviation="2"/>
<feComposite in2="hardAlpha" operator="out"/>
<feColorMatrix type="matrix" values="0 0 0 0 0 0 0 0 0 0 0 0 0 0 0 0 0 0 0.25 0"/>
<feBlend mode="normal" in2="BackgroundImageFix" result="effect1_dropShadow_1_702"/>
<feBlend mode="normal" in="SourceGraphic" in2="effect1_dropShadow_1_702" result="shape"/>
</filter>
</defs>
</svg>
