<svg width="34" height="35" viewBox="0 0 34 35" fill="none" xmlns="http://www.w3.org/2000/svg">
<path d="M27.8428 30.0777V27.2934C27.8428 25.8165 27.2561 24.4002 26.2118 23.3559C25.1675 22.3115 23.7511 21.7249 22.2742 21.7249H20.8821C20.5129 21.7249 20.1588 21.5782 19.8977 21.3171C19.6366 21.056 19.4899 20.7019 19.4899 20.3327V13.372C19.4899 12.6336 19.1966 11.9254 18.6744 11.4032C18.1523 10.8811 17.4441 10.5878 16.7057 10.5878V10.5878C15.9672 10.5878 15.259 10.8811 14.7369 11.4032C14.2147 11.9254 13.9214 12.6336 13.9214 13.372V25.9013L10.5802 21.4464C10.3209 21.1006 9.98461 20.82 9.59799 20.6267C9.21138 20.4334 8.78507 20.3327 8.35283 20.3327H7.74864C6.54444 20.3327 5.56855 21.3086 5.56855 22.5128C5.56855 22.9082 5.67574 23.2966 5.879 23.6349L9.74497 30.0777M16.7057 6.41133V5.0192M25.0585 14.7642H26.4506M6.96069 14.7642H8.35283M10.2225 8.28098L9.23823 7.29674M23.1889 8.28098L24.1731 7.29674" stroke="#099DCC" stroke-width="1.39214" stroke-linecap="round" stroke-linejoin="round"/>
</svg>
