<svg width="34" height="35" viewBox="0 0 34 35" fill="none" xmlns="http://www.w3.org/2000/svg">
<path d="M2.46797 10.7618C2.46797 9.51565 2.96299 8.32058 3.84412 7.43944C4.72526 6.55831 5.92033 6.06329 7.16644 6.06329H27.0044C28.2505 6.06329 29.4456 6.55831 30.3267 7.43944C31.2079 8.32058 31.7029 9.51565 31.7029 10.7618V24.3351C31.7029 25.5812 31.2079 26.7763 30.3267 27.6574C29.4456 28.5386 28.2505 29.0336 27.0044 29.0336H7.16644C5.92033 29.0336 4.72526 28.5386 3.84412 27.6574C2.96299 26.7763 2.46797 25.5812 2.46797 24.3351V10.7618ZM7.16644 8.1515C6.47416 8.1515 5.81023 8.42651 5.32071 8.91603C4.83119 9.40555 4.55618 10.0695 4.55618 10.7618V12.3279H29.6147V10.7618C29.6147 10.0695 29.3397 9.40555 28.8502 8.91603C28.3606 8.42651 27.6967 8.1515 27.0044 8.1515H7.16644ZM4.55618 24.3351C4.55618 25.0274 4.83119 25.6913 5.32071 26.1809C5.81023 26.6704 6.47416 26.9454 7.16644 26.9454H27.0044C27.6967 26.9454 28.3606 26.6704 28.8502 26.1809C29.3397 25.6913 29.6147 25.0274 29.6147 24.3351V14.4161H4.55618V24.3351ZM22.306 20.6808H25.4383C25.7152 20.6808 25.9808 20.7908 26.1766 20.9866C26.3724 21.1824 26.4824 21.4479 26.4824 21.7249C26.4824 22.0018 26.3724 22.2673 26.1766 22.4632C25.9808 22.659 25.7152 22.769 25.4383 22.769H22.306C22.029 22.769 21.7635 22.659 21.5677 22.4632C21.3719 22.2673 21.2618 22.0018 21.2618 21.7249C21.2618 21.4479 21.3719 21.1824 21.5677 20.9866C21.7635 20.7908 22.029 20.6808 22.306 20.6808Z" fill="#099DCC"/>
</svg>
