<svg width="24" height="24" viewBox="0 0 24 24" fill="none" xmlns="http://www.w3.org/2000/svg">
<g clip-path="url(#clip0_111_1882)">
<path d="M20.9998 6.70478C20.3258 6.98925 19.6109 7.17597 18.8788 7.25875C19.6413 6.82334 20.2268 6.13386 20.5025 5.31235C19.7776 5.72215 18.9845 6.01089 18.1575 6.16608C17.4839 5.48235 16.5242 5.05505 15.462 5.05505C13.4225 5.05505 11.7689 6.63029 11.7689 8.57314C11.7689 8.84892 11.8016 9.1174 11.8646 9.37496C8.79542 9.22819 6.07432 7.82759 4.25288 5.69905C3.93507 6.21866 3.75296 6.82307 3.75296 7.46774C3.75296 8.68835 4.40496 9.76515 5.39581 10.3961C4.80937 10.3786 4.23583 10.2277 3.72307 9.95599C3.72286 9.97073 3.72286 9.98546 3.72286 10.0003C3.72286 11.7049 4.9958 13.1268 6.68513 13.45C6.14132 13.5909 5.57091 13.6115 5.01746 13.5103C5.48736 14.908 6.85121 15.9251 8.46713 15.9536C7.20326 16.8972 5.61089 17.4597 3.88079 17.4597C3.58266 17.4597 3.28875 17.443 2.99984 17.4105C4.63411 18.4087 6.57523 18.9911 8.6607 18.9911C15.4534 18.9911 19.1678 13.6302 19.1678 8.98115C19.1678 8.82855 19.1643 8.67683 19.1571 8.52598C19.8801 8.02807 20.5041 7.41135 20.9998 6.70478Z" fill="white"/>
</g>
<defs>
<clipPath id="clip0_111_1882">
<rect width="18" height="14" fill="white" transform="translate(2.99984 5)"/>
</clipPath>
</defs>
</svg>
